<?xml version="1.0" encoding="utf-8" standalone="no"?>
<!DOCTYPE svg PUBLIC "-//W3C//DTD SVG 1.1//EN"
  "http://www.w3.org/Graphics/SVG/1.1/DTD/svg11.dtd">
<svg xmlns:xlink="http://www.w3.org/1999/xlink" width="345.252pt" height="413.681544pt" viewBox="0 0 345.252 413.681544" xmlns="http://www.w3.org/2000/svg" version="1.1">
 <metadata>
  <rdf:RDF xmlns:dc="http://purl.org/dc/elements/1.1/" xmlns:cc="http://creativecommons.org/ns#" xmlns:rdf="http://www.w3.org/1999/02/22-rdf-syntax-ns#">
   <cc:Work>
    <dc:type rdf:resource="http://purl.org/dc/dcmitype/StillImage"/>
    <dc:date>2026-09-20T01:23:15.214601</dc:date>
    <dc:format>image/svg+xml</dc:format>
    <dc:creator>
     <cc:Agent>
      <dc:title>Matplotlib v3.11.0, https://matplotlib.org/</dc:title>
     </cc:Agent>
    </dc:creator>
   </cc:Work>
  </rdf:RDF>
 </metadata>
 <defs>
  <style type="text/css">*{stroke-linejoin: round; stroke-linecap: butt}</style>
 </defs>
 <g id="figure_1">
  <g id="patch_1">
   <path d="M 0 413.681544 
L 345.252 413.681544 
L 345.252 0 
L 0 0 
L 0 413.681544 
z
" style="fill: none"/>
  </g>
  <g id="axes_1">
   <g id="patch_2">
    <path d="M 50.2 394.1992 
L 188.44 394.1992 
L 188.44 31.3192 
L 50.2 31.3192 
L 50.2 394.1992 
z
" style="fill: none"/>
   </g>
   <g id="PathCollection_1">
    <path d="M 86.405714 51.693934 
C 88.372125 51.693934 90.258261 50.912671 91.648723 49.522209 
C 93.039186 48.131747 93.820449 46.245611 93.820449 44.2792 
C 93.820449 42.312789 93.039186 40.426653 91.648723 39.036191 
C 90.258261 37.645729 88.372125 36.864466 86.405714 36.864466 
C 84.439304 36.864466 82.553168 37.645729 81.162705 39.036191 
C 79.772243 40.426653 78.99098 42.312789 78.99098 44.2792 
C 78.99098 46.245611 79.772243 48.131747 81.162705 49.522209 
C 82.553168 50.912671 84.439304 51.693934 86.405714 51.693934 
z
" clip-path="url(#p8d02848418)" style="fill: #cae11f"/>
   </g>
   <g id="PathCollection_2">
    <path d="M 152.234286 51.693624 
C 154.200614 51.693624 156.086671 50.912394 157.477075 49.52199 
C 158.867479 48.131585 159.64871 46.245528 159.64871 44.2792 
C 159.64871 42.312872 158.867479 40.426815 157.477075 39.03641 
C 156.086671 37.646006 154.200614 36.864776 152.234286 36.864776 
C 150.267957 36.864776 148.3819 37.646006 146.991496 39.03641 
C 145.601092 40.426815 144.819862 42.312872 144.819862 44.2792 
C 144.819862 46.245528 145.601092 48.131585 146.991496 49.52199 
C 148.3819 50.912394 150.267957 51.693624 152.234286 51.693624 
z
" clip-path="url(#p8d02848418)" style="fill: #fde725"/>
   </g>
   <g id="PathCollection_3">
    <path d="M 86.405714 77.613934 
C 88.372125 77.613934 90.258261 76.832671 91.648723 75.442209 
C 93.039186 74.051747 93.820449 72.165611 93.820449 70.1992 
C 93.820449 68.232789 93.039186 66.346653 91.648723 64.956191 
C 90.258261 63.565729 88.372125 62.784466 86.405714 62.784466 
C 84.439304 62.784466 82.553168 63.565729 81.162705 64.956191 
C 79.772243 66.346653 78.99098 68.232789 78.99098 70.1992 
C 78.99098 72.165611 79.772243 74.051747 81.162705 75.442209 
C 82.553168 76.832671 84.439304 77.613934 86.405714 77.613934 
z
" clip-path="url(#p8d02848418)" style="fill: #9bd93c"/>
   </g>
   <g id="PathCollection_4">
    <path d="M 152.234286 77.613624 
C 154.200614 77.613624 156.086671 76.832394 157.477075 75.44199 
C 158.867479 74.051585 159.64871 72.165528 159.64871 70.1992 
C 159.64871 68.232872 158.867479 66.346815 157.477075 64.95641 
C 156.086671 63.566006 154.200614 62.784776 152.234286 62.784776 
C 150.267957 62.784776 148.3819 63.566006 146.991496 64.95641 
C 145.601092 66.346815 144.819862 68.232872 144.819862 70.1992 
C 144.819862 72.165528 145.601092 74.051585 146.991496 75.44199 
C 148.3819 76.832394 150.267957 77.613624 152.234286 77.613624 
z
" clip-path="url(#p8d02848418)" style="fill: #c0df25"/>
   </g>
   <g id="PathCollection_5">
    <path d="M 86.405714 103.533934 
C 88.372125 103.533934 90.258261 102.752671 91.648723 101.362209 
C 93.039186 99.971747 93.820449 98.085611 93.820449 96.1192 
C 93.820449 94.152789 93.039186 92.266653 91.648723 90.876191 
C 90.258261 89.485729 88.372125 88.704466 86.405714 88.704466 
C 84.439304 88.704466 82.553168 89.485729 81.162705 90.876191 
C 79.772243 92.266653 78.99098 94.152789 78.99098 96.1192 
C 78.99098 98.085611 79.772243 99.971747 81.162705 101.362209 
C 82.553168 102.752671 84.439304 103.533934 86.405714 103.533934 
z
" clip-path="url(#p8d02848418)" style="fill: #a8db34"/>
   </g>
   <g id="PathCollection_6">
    <path d="M 152.234286 103.530074 
C 154.199672 103.530074 156.084827 102.749218 157.474565 101.359479 
C 158.864303 99.969741 159.64516 98.084587 159.64516 96.1192 
C 159.64516 94.153813 158.864303 92.268659 157.474565 90.878921 
C 156.084827 89.489182 154.199672 88.708326 152.234286 88.708326 
C 150.268899 88.708326 148.383745 89.489182 146.994006 90.878921 
C 145.604268 92.268659 144.823412 94.153813 144.823412 96.1192 
C 144.823412 98.084587 145.604268 99.969741 146.994006 101.359479 
C 148.383745 102.749218 150.268899 103.530074 152.234286 103.530074 
z
" clip-path="url(#p8d02848418)" style="fill: #cde11d"/>
   </g>
   <g id="PathCollection_7">
    <path d="M 86.405714 129.45247 
C 88.371736 129.45247 90.2575 128.671361 91.647688 127.281174 
C 93.037875 125.890986 93.818984 124.005222 93.818984 122.0392 
C 93.818984 120.073178 93.037875 118.187414 91.647688 116.797226 
C 90.2575 115.407039 88.371736 114.62593 86.405714 114.62593 
C 84.439692 114.62593 82.553928 115.407039 81.163741 116.797226 
C 79.773553 118.187414 78.992444 120.073178 78.992444 122.0392 
C 78.992444 124.005222 79.773553 125.890986 81.163741 127.281174 
C 82.553928 128.671361 84.439692 129.45247 86.405714 129.45247 
z
" clip-path="url(#p8d02848418)" style="fill: #b0dd2f"/>
   </g>
   <g id="PathCollection_8">
    <path d="M 152.234286 129.455398 
C 154.201085 129.455398 156.087593 128.673981 157.47833 127.283244 
C 158.869067 125.892507 159.650484 124.005999 159.650484 122.0392 
C 159.650484 120.072401 158.869067 118.185893 157.47833 116.795156 
C 156.087593 115.404419 154.201085 114.623002 152.234286 114.623002 
C 150.267487 114.623002 148.380978 115.404419 146.990241 116.795156 
C 145.599505 118.185893 144.818087 120.072401 144.818087 122.0392 
C 144.818087 124.005999 145.599505 125.892507 146.990241 127.283244 
C 148.380978 128.673981 150.267487 129.455398 152.234286 129.455398 
z
" clip-path="url(#p8d02848418)" style="fill: #d8e219"/>
   </g>
   <g id="PathCollection_9">
    <path d="M 86.405714 155.36661 
C 88.370182 155.36661 90.254455 154.586118 91.643544 153.19703 
C 93.032633 151.807941 93.813124 149.923668 93.813124 147.9592 
C 93.813124 145.994732 93.032633 144.110459 91.643544 142.72137 
C 90.254455 141.332282 88.370182 140.55179 86.405714 140.55179 
C 84.441246 140.55179 82.556973 141.332282 81.167885 142.72137 
C 79.778796 144.110459 78.998305 145.994732 78.998305 147.9592 
C 78.998305 149.923668 79.778796 151.807941 81.167885 153.19703 
C 82.556973 154.586118 84.441246 155.36661 86.405714 155.36661 
z
" clip-path="url(#p8d02848418)" style="fill: #a0da39"/>
   </g>
   <g id="PathCollection_10">
    <path d="M 152.234286 155.373624 
C 154.200614 155.373624 156.086671 154.592394 157.477075 153.20199 
C 158.867479 151.811585 159.64871 149.925528 159.64871 147.9592 
C 159.64871 145.992872 158.867479 144.106815 157.477075 142.71641 
C 156.086671 141.326006 154.200614 140.544776 152.234286 140.544776 
C 150.267957 140.544776 148.3819 141.326006 146.991496 142.71641 
C 145.601092 144.106815 144.819862 145.992872 144.819862 147.9592 
C 144.819862 149.925528 145.601092 151.811585 146.991496 153.20199 
C 148.3819 154.592394 150.267957 155.373624 152.234286 155.373624 
z
" clip-path="url(#p8d02848418)" style="fill: #c2df23"/>
   </g>
   <g id="PathCollection_11">
    <path d="M 86.405714 181.277811 
C 88.367849 181.277811 90.249883 180.498246 91.637322 179.110808 
C 93.024761 177.723369 93.804325 175.841334 93.804325 173.8792 
C 93.804325 171.917066 93.024761 170.035031 91.637322 168.647592 
C 90.249883 167.260154 88.367849 166.480589 86.405714 166.480589 
C 84.44358 166.480589 82.561545 167.260154 81.174107 168.647592 
C 79.786668 170.035031 79.007104 171.917066 79.007104 173.8792 
C 79.007104 175.841334 79.786668 177.723369 81.174107 179.110808 
C 82.561545 180.498246 84.44358 181.277811 86.405714 181.277811 
z
" clip-path="url(#p8d02848418)" style="fill: #5ac864"/>
   </g>
   <g id="PathCollection_12">
    <path d="M 152.234286 181.290074 
C 154.199672 181.290074 156.084827 180.509218 157.474565 179.119479 
C 158.864303 177.729741 159.64516 175.844587 159.64516 173.8792 
C 159.64516 171.913813 158.864303 170.028659 157.474565 168.638921 
C 156.084827 167.249182 154.199672 166.468326 152.234286 166.468326 
C 150.268899 166.468326 148.383745 167.249182 146.994006 168.638921 
C 145.604268 170.028659 144.823412 171.913813 144.823412 173.8792 
C 144.823412 175.844587 145.604268 177.729741 146.994006 179.119479 
C 148.383745 180.509218 150.268899 181.290074 152.234286 181.290074 
z
" clip-path="url(#p8d02848418)" style="fill: #7fd34e"/>
   </g>
   <g id="PathCollection_13">
    <path d="M 86.405714 207.203678 
C 88.369405 207.203678 90.252932 206.423495 91.641471 205.034957 
C 93.03001 203.646418 93.810192 201.76289 93.810192 199.7992 
C 93.810192 197.83551 93.03001 195.951982 91.641471 194.563443 
C 90.252932 193.174905 88.369405 192.394722 86.405714 192.394722 
C 84.442024 192.394722 82.558497 193.174905 81.169958 194.563443 
C 79.781419 195.951982 79.001236 197.83551 79.001236 199.7992 
C 79.001236 201.76289 79.781419 203.646418 81.169958 205.034957 
C 82.558497 206.423495 84.442024 207.203678 86.405714 207.203678 
z
" clip-path="url(#p8d02848418)" style="fill: #6ccd5a"/>
   </g>
   <g id="PathCollection_14">
    <path d="M 152.234286 207.211849 
C 154.200143 207.211849 156.085749 206.430806 157.47582 205.040735 
C 158.865891 203.650663 159.646935 201.765058 159.646935 199.7992 
C 159.646935 197.833342 158.865891 195.947737 157.47582 194.557665 
C 156.085749 193.167594 154.200143 192.386551 152.234286 192.386551 
C 150.268428 192.386551 148.382822 193.167594 146.992751 194.557665 
C 145.60268 195.947737 144.821636 197.833342 144.821636 199.7992 
C 144.821636 201.765058 145.60268 203.650663 146.992751 205.040735 
C 148.382822 206.430806 150.268428 207.211849 152.234286 207.211849 
z
" clip-path="url(#p8d02848418)" style="fill: #8ed645"/>
   </g>
   <g id="PathCollection_15">
    <path d="M 86.405714 233.104592 
C 88.364343 233.104592 90.243015 232.326421 91.627975 230.941461 
C 93.012935 229.556501 93.791107 227.677829 93.791107 225.7192 
C 93.791107 223.760571 93.012935 221.881899 91.627975 220.496939 
C 90.243015 219.111979 88.364343 218.333808 86.405714 218.333808 
C 84.447085 218.333808 82.568413 219.111979 81.183453 220.496939 
C 79.798494 221.881899 79.020322 223.760571 79.020322 225.7192 
C 79.020322 227.677829 79.798494 229.556501 81.183453 230.941461 
C 82.568413 232.326421 84.447085 233.104592 86.405714 233.104592 
z
" clip-path="url(#p8d02848418)" style="fill: #2db27d"/>
   </g>
   <g id="PathCollection_16">
    <path d="M 152.234286 233.02637 
C 154.17217 233.02637 156.030944 232.256441 157.401235 230.88615 
C 158.771526 229.515859 159.541456 227.657084 159.541456 225.7192 
C 159.541456 223.781316 158.771526 221.922541 157.401235 220.55225 
C 156.030944 219.181959 154.17217 218.41203 152.234286 218.41203 
C 150.296402 218.41203 148.437627 219.181959 147.067336 220.55225 
C 145.697045 221.922541 144.927115 223.781316 144.927115 225.7192 
C 144.927115 227.657084 145.697045 229.515859 147.067336 230.88615 
C 148.437627 232.256441 150.296402 233.02637 152.234286 233.02637 
z
" clip-path="url(#p8d02848418)" style="fill: #1fa088"/>
   </g>
   <g id="PathCollection_17">
    <path d="M 86.405714 259.051005 
C 88.371348 259.051005 90.256739 258.270051 91.646652 256.880138 
C 93.036565 255.490225 93.81752 253.604834 93.81752 251.6392 
C 93.81752 249.673566 93.036565 247.788175 91.646652 246.398262 
C 90.256739 245.008349 88.371348 244.227395 86.405714 244.227395 
C 84.440081 244.227395 82.554689 245.008349 81.164776 246.398262 
C 79.774863 247.788175 78.993909 249.673566 78.993909 251.6392 
C 78.993909 253.604834 79.774863 255.490225 81.164776 256.880138 
C 82.554689 258.270051 84.440081 259.051005 86.405714 259.051005 
z
" clip-path="url(#p8d02848418)" style="fill: #86d549"/>
   </g>
   <g id="PathCollection_18">
    <path d="M 152.234286 259.042969 
C 154.197788 259.042969 156.081135 258.262861 157.469541 256.874455 
C 158.857947 255.486049 159.638054 253.602702 159.638054 251.6392 
C 159.638054 249.675698 158.857947 247.792351 157.469541 246.403945 
C 156.081135 245.015539 154.197788 244.235431 152.234286 244.235431 
C 150.270783 244.235431 148.387437 245.015539 146.999031 246.403945 
C 145.610625 247.792351 144.830517 249.675698 144.830517 251.6392 
C 144.830517 253.602702 145.610625 255.486049 146.999031 256.874455 
C 148.387437 258.262861 150.270783 259.042969 152.234286 259.042969 
z
" clip-path="url(#p8d02848418)" style="fill: #6ccd5a"/>
   </g>
   <g id="PathCollection_19">
    <path d="M 86.405714 284.548843 
C 88.259389 284.548843 90.037392 283.81237 91.348138 282.501624 
C 92.658885 281.190878 93.395358 279.412875 93.395358 277.5592 
C 93.395358 275.705525 92.658885 273.927522 91.348138 272.616776 
C 90.037392 271.30603 88.259389 270.569557 86.405714 270.569557 
C 84.552039 270.569557 82.774036 271.30603 81.46329 272.616776 
C 80.152544 273.927522 79.416071 275.705525 79.416071 277.5592 
C 79.416071 279.412875 80.152544 281.190878 81.46329 282.501624 
C 82.774036 283.81237 84.552039 284.548843 86.405714 284.548843 
z
" clip-path="url(#p8d02848418)" style="fill: #287d8e"/>
   </g>
   <g id="PathCollection_20">
    <path d="M 152.234286 284.200379 
C 153.995547 284.200379 155.684909 283.500623 156.930309 282.255223 
C 158.175709 281.009823 158.875465 279.320461 158.875465 277.5592 
C 158.875465 275.797939 158.175709 274.108577 156.930309 272.863177 
C 155.684909 271.617777 153.995547 270.918021 152.234286 270.918021 
C 150.473024 270.918021 148.783663 271.617777 147.538263 272.863177 
C 146.292863 274.108577 145.593106 275.797939 145.593106 277.5592 
C 145.593106 279.320461 146.292863 281.009823 147.538263 282.255223 
C 148.783663 283.500623 150.473024 284.200379 152.234286 284.200379 
z
" clip-path="url(#p8d02848418)" style="fill: #306a8e"/>
   </g>
   <g id="PathCollection_21">
    <path d="M 86.405714 309.798291 
C 88.081557 309.798291 89.688987 309.132472 90.873986 307.947472 
C 92.058986 306.762473 92.724805 305.155043 92.724805 303.4792 
C 92.724805 301.803357 92.058986 300.195927 90.873986 299.010928 
C 89.688987 297.825928 88.081557 297.160109 86.405714 297.160109 
C 84.729872 297.160109 83.122442 297.825928 81.937442 299.010928 
C 80.752443 300.195927 80.086623 301.803357 80.086623 303.4792 
C 80.086623 305.155043 80.752443 306.762473 81.937442 307.947472 
C 83.122442 309.132472 84.729872 309.798291 86.405714 309.798291 
z
" clip-path="url(#p8d02848418)" style="fill: #355e8d"/>
   </g>
   <g id="PathCollection_22">
    <path d="M 152.234286 309.154632 
C 153.739428 309.154632 155.183126 308.556633 156.247422 307.492336 
C 157.311718 306.42804 157.909718 304.984342 157.909718 303.4792 
C 157.909718 301.974058 157.311718 300.53036 156.247422 299.466064 
C 155.183126 298.401767 153.739428 297.803768 152.234286 297.803768 
C 150.729144 297.803768 149.285446 298.401767 148.221149 299.466064 
C 147.156853 300.53036 146.558854 301.974058 146.558854 303.4792 
C 146.558854 304.984342 147.156853 306.42804 148.221149 307.492336 
C 149.285446 308.556633 150.729144 309.154632 152.234286 309.154632 
z
" clip-path="url(#p8d02848418)" style="fill: #3f4889"/>
   </g>
   <g id="PathCollection_23">
    <path d="M 86.405714 335.357504 
C 87.985875 335.357504 89.501529 334.729699 90.618871 333.612357 
C 91.736213 332.495015 92.364018 330.979361 92.364018 329.3992 
C 92.364018 327.819039 91.736213 326.303385 90.618871 325.186043 
C 89.501529 324.068701 87.985875 323.440896 86.405714 323.440896 
C 84.825554 323.440896 83.3099 324.068701 82.192557 325.186043 
C 81.075215 326.303385 80.447411 327.819039 80.447411 329.3992 
C 80.447411 330.979361 81.075215 332.495015 82.192557 333.612357 
C 83.3099 334.729699 84.825554 335.357504 86.405714 335.357504 
z
" clip-path="url(#p8d02848418)" style="fill: #3c508b"/>
   </g>
   <g id="PathCollection_24">
    <path d="M 152.234286 334.774582 
C 153.659854 334.774582 155.027226 334.208198 156.035255 333.200169 
C 157.043284 332.192141 157.609668 330.824768 157.609668 329.3992 
C 157.609668 327.973632 157.043284 326.606259 156.035255 325.598231 
C 155.027226 324.590202 153.659854 324.023818 152.234286 324.023818 
C 150.808718 324.023818 149.441345 324.590202 148.433316 325.598231 
C 147.425287 326.606259 146.858903 327.973632 146.858903 329.3992 
C 146.858903 330.824768 147.425287 332.192141 148.433316 333.200169 
C 149.441345 334.208198 150.808718 334.774582 152.234286 334.774582 
z
" clip-path="url(#p8d02848418)" style="fill: #423f85"/>
   </g>
   <g id="PathCollection_25">
    <path d="M 86.405714 361.537844 
C 88.054918 361.537844 89.636797 360.882609 90.80296 359.716445 
C 91.969123 358.550282 92.624358 356.968404 92.624358 355.3192 
C 92.624358 353.669996 91.969123 352.088118 90.80296 350.921955 
C 89.636797 349.755791 88.054918 349.100556 86.405714 349.100556 
C 84.756511 349.100556 83.174632 349.755791 82.008469 350.921955 
C 80.842306 352.088118 80.18707 353.669996 80.18707 355.3192 
C 80.18707 356.968404 80.842306 358.550282 82.008469 359.716445 
C 83.174632 360.882609 84.756511 361.537844 86.405714 361.537844 
z
" clip-path="url(#p8d02848418)" style="fill: #38588c"/>
   </g>
   <g id="PathCollection_26">
    <path d="M 152.234286 361.068342 
C 153.758976 361.068342 155.221424 360.462576 156.299543 359.384457 
C 157.377662 358.306338 157.983428 356.84389 157.983428 355.3192 
C 157.983428 353.79451 157.377662 352.332062 156.299543 351.253943 
C 155.221424 350.175824 153.758976 349.570058 152.234286 349.570058 
C 150.709595 349.570058 149.247147 350.175824 148.169029 351.253943 
C 147.09091 352.332062 146.485144 353.79451 146.485144 355.3192 
C 146.485144 356.84389 147.09091 358.306338 148.169029 359.384457 
C 149.247147 360.462576 150.709595 361.068342 152.234286 361.068342 
z
" clip-path="url(#p8d02848418)" style="fill: #3f4889"/>
   </g>
   <g id="PathCollection_27">
    <path d="M 86.405714 387.957989 
C 88.187558 387.957989 89.896662 387.250055 91.156615 385.990101 
C 92.416569 384.730147 93.124503 383.021044 93.124503 381.2392 
C 93.124503 379.457356 92.416569 377.748253 91.156615 376.488299 
C 89.896662 375.228345 88.187558 374.520411 86.405714 374.520411 
C 84.623871 374.520411 82.914767 375.228345 81.654813 376.488299 
C 80.394859 377.748253 79.686925 379.457356 79.686925 381.2392 
C 79.686925 383.021044 80.394859 384.730147 81.654813 385.990101 
C 82.914767 387.250055 84.623871 387.957989 86.405714 387.957989 
z
" clip-path="url(#p8d02848418)" style="fill: #2b758e"/>
   </g>
   <g id="PathCollection_28">
    <path d="M 152.234286 387.650539 
C 153.934593 387.650539 155.565488 386.975 156.767787 385.772701 
C 157.970085 384.570403 158.645624 382.939507 158.645624 381.2392 
C 158.645624 379.538893 157.970085 377.907997 156.767787 376.705699 
C 155.565488 375.5034 153.934593 374.827861 152.234286 374.827861 
C 150.533979 374.827861 148.903083 375.5034 147.700785 376.705699 
C 146.498486 377.907997 145.822947 379.538893 145.822947 381.2392 
C 145.822947 382.939507 146.498486 384.570403 147.700785 385.772701 
C 148.903083 386.975 150.533979 387.650539 152.234286 387.650539 
z
" clip-path="url(#p8d02848418)" style="fill: #31678e"/>
   </g>
   <g id="PathCollection_29"/>
   <g id="PathCollection_30"/>
   <g id="PathCollection_31"/>
   <g id="matplotlib.axis_1">
    <g id="xtick_1">
     <g id="line2d_1">
      <defs>
       <path id="me1a55e2dd7" d="M 0 0 
L 0 3.5 
" style="stroke: #000000; stroke-width: 0.8"/>
      </defs>
      <g>
       <use xlink:href="#me1a55e2dd7" x="86.405714" y="394.1992" style="stroke: #000000; stroke-width: 0.8"/>
      </g>
     </g>
     <g id="text_1">
      <!-- Ctrl -->
      <g transform="translate(77.509621 408.797638) scale(0.1 -0.1)">
       <defs>
        <path id="DejaVuSans-26" d="M 4122 4306 
L 4122 3641 
Q 3803 3938 3442 4084 
Q 3081 4231 2675 4231 
Q 1875 4231 1450 3742 
Q 1025 3253 1025 2328 
Q 1025 1406 1450 917 
Q 1875 428 2675 428 
Q 3081 428 3442 575 
Q 3803 722 4122 1019 
L 4122 359 
Q 3791 134 3420 21 
Q 3050 -91 2638 -91 
Q 1578 -91 968 557 
Q 359 1206 359 2328 
Q 359 3453 968 4101 
Q 1578 4750 2638 4750 
Q 3056 4750 3426 4639 
Q 3797 4528 4122 4306 
z
" transform="scale(0.015625)"/>
        <path id="DejaVuSans-57" d="M 1172 4494 
L 1172 3500 
L 2356 3500 
L 2356 3053 
L 1172 3053 
L 1172 1153 
Q 1172 725 1289 603 
Q 1406 481 1766 481 
L 2356 481 
L 2356 0 
L 1766 0 
Q 1100 0 847 248 
Q 594 497 594 1153 
L 594 3053 
L 172 3053 
L 172 3500 
L 594 3500 
L 594 4494 
L 1172 4494 
z
" transform="scale(0.015625)"/>
        <path id="DejaVuSans-55" d="M 2631 2963 
Q 2534 3019 2420 3045 
Q 2306 3072 2169 3072 
Q 1681 3072 1420 2755 
Q 1159 2438 1159 1844 
L 1159 0 
L 581 0 
L 581 3500 
L 1159 3500 
L 1159 2956 
Q 1341 3275 1631 3429 
Q 1922 3584 2338 3584 
Q 2397 3584 2469 3576 
Q 2541 3569 2628 3553 
L 2631 2963 
z
" transform="scale(0.015625)"/>
        <path id="DejaVuSans-4f" d="M 603 4863 
L 1178 4863 
L 1178 0 
L 603 0 
L 603 4863 
z
" transform="scale(0.015625)"/>
       </defs>
       <use xlink:href="#DejaVuSans-26"/>
       <use xlink:href="#DejaVuSans-57" transform="translate(69.828125 0)"/>
       <use xlink:href="#DejaVuSans-55" transform="translate(109.03125 0)"/>
       <use xlink:href="#DejaVuSans-4f" transform="translate(150.140625 0)"/>
      </g>
     </g>
    </g>
    <g id="xtick_2">
     <g id="line2d_2">
      <g>
       <use xlink:href="#me1a55e2dd7" x="152.234286" y="394.1992" style="stroke: #000000; stroke-width: 0.8"/>
      </g>
     </g>
     <g id="text_2">
      <!-- T2 -->
      <g transform="translate(145.999129 408.796856) scale(0.1 -0.1)">
       <defs>
        <path id="DejaVuSans-37" d="M -19 4666 
L 3928 4666 
L 3928 4134 
L 2272 4134 
L 2272 0 
L 1638 0 
L 1638 4134 
L -19 4134 
L -19 4666 
z
" transform="scale(0.015625)"/>
        <path id="DejaVuSans-15" d="M 1228 531 
L 3431 531 
L 3431 0 
L 469 0 
L 469 531 
Q 828 903 1448 1529 
Q 2069 2156 2228 2338 
Q 2531 2678 2651 2914 
Q 2772 3150 2772 3378 
Q 2772 3750 2511 3984 
Q 2250 4219 1831 4219 
Q 1534 4219 1204 4116 
Q 875 4013 500 3803 
L 500 4441 
Q 881 4594 1212 4672 
Q 1544 4750 1819 4750 
Q 2544 4750 2975 4387 
Q 3406 4025 3406 3419 
Q 3406 3131 3298 2873 
Q 3191 2616 2906 2266 
Q 2828 2175 2409 1742 
Q 1991 1309 1228 531 
z
" transform="scale(0.015625)"/>
       </defs>
       <use xlink:href="#DejaVuSans-37"/>
       <use xlink:href="#DejaVuSans-15" transform="translate(61.078125 0)"/>
      </g>
     </g>
    </g>
   </g>
   <g id="matplotlib.axis_2">
    <g id="ytick_1">
     <g id="line2d_3">
      <defs>
       <path id="me63d8e968c" d="M 0 0 
L -3.5 0 
" style="stroke: #000000; stroke-width: 0.8"/>
      </defs>
      <g>
       <use xlink:href="#me63d8e968c" x="50.2" y="44.2792" style="stroke: #000000; stroke-width: 0.8"/>
      </g>
     </g>
     <g id="text_3">
      <!-- Tmsb10 -->
      <g transform="translate(3.06875 48.078419) scale(0.1 -0.1)">
       <defs>
        <path id="DejaVuSans-50" d="M 3328 2828 
Q 3544 3216 3844 3400 
Q 4144 3584 4550 3584 
Q 5097 3584 5394 3201 
Q 5691 2819 5691 2113 
L 5691 0 
L 5113 0 
L 5113 2094 
Q 5113 2597 4934 2840 
Q 4756 3084 4391 3084 
Q 3944 3084 3684 2787 
Q 3425 2491 3425 1978 
L 3425 0 
L 2847 0 
L 2847 2094 
Q 2847 2600 2669 2842 
Q 2491 3084 2119 3084 
Q 1678 3084 1418 2786 
Q 1159 2488 1159 1978 
L 1159 0 
L 581 0 
L 581 3500 
L 1159 3500 
L 1159 2956 
Q 1356 3278 1631 3431 
Q 1906 3584 2284 3584 
Q 2666 3584 2933 3390 
Q 3200 3197 3328 2828 
z
" transform="scale(0.015625)"/>
        <path id="DejaVuSans-56" d="M 2834 3397 
L 2834 2853 
Q 2591 2978 2328 3040 
Q 2066 3103 1784 3103 
Q 1356 3103 1142 2972 
Q 928 2841 928 2578 
Q 928 2378 1081 2264 
Q 1234 2150 1697 2047 
L 1894 2003 
Q 2506 1872 2764 1633 
Q 3022 1394 3022 966 
Q 3022 478 2636 193 
Q 2250 -91 1575 -91 
Q 1294 -91 989 -36 
Q 684 19 347 128 
L 347 722 
Q 666 556 975 473 
Q 1284 391 1588 391 
Q 1994 391 2212 530 
Q 2431 669 2431 922 
Q 2431 1156 2273 1281 
Q 2116 1406 1581 1522 
L 1381 1569 
Q 847 1681 609 1914 
Q 372 2147 372 2553 
Q 372 3047 722 3315 
Q 1072 3584 1716 3584 
Q 2034 3584 2315 3537 
Q 2597 3491 2834 3397 
z
" transform="scale(0.015625)"/>
        <path id="DejaVuSans-45" d="M 3116 1747 
Q 3116 2381 2855 2742 
Q 2594 3103 2138 3103 
Q 1681 3103 1420 2742 
Q 1159 2381 1159 1747 
Q 1159 1113 1420 752 
Q 1681 391 2138 391 
Q 2594 391 2855 752 
Q 3116 1113 3116 1747 
z
M 1159 2969 
Q 1341 3281 1617 3432 
Q 1894 3584 2278 3584 
Q 2916 3584 3314 3078 
Q 3713 2572 3713 1747 
Q 3713 922 3314 415 
Q 2916 -91 2278 -91 
Q 1894 -91 1617 61 
Q 1341 213 1159 525 
L 1159 0 
L 581 0 
L 581 4863 
L 1159 4863 
L 1159 2969 
z
" transform="scale(0.015625)"/>
        <path id="DejaVuSans-14" d="M 794 531 
L 1825 531 
L 1825 4091 
L 703 3866 
L 703 4441 
L 1819 4666 
L 2450 4666 
L 2450 531 
L 3481 531 
L 3481 0 
L 794 0 
L 794 531 
z
" transform="scale(0.015625)"/>
        <path id="DejaVuSans-13" d="M 2034 4250 
Q 1547 4250 1301 3770 
Q 1056 3291 1056 2328 
Q 1056 1369 1301 889 
Q 1547 409 2034 409 
Q 2525 409 2770 889 
Q 3016 1369 3016 2328 
Q 3016 3291 2770 3770 
Q 2525 4250 2034 4250 
z
M 2034 4750 
Q 2819 4750 3233 4129 
Q 3647 3509 3647 2328 
Q 3647 1150 3233 529 
Q 2819 -91 2034 -91 
Q 1250 -91 836 529 
Q 422 1150 422 2328 
Q 422 3509 836 4129 
Q 1250 4750 2034 4750 
z
" transform="scale(0.015625)"/>
       </defs>
       <use xlink:href="#DejaVuSans-37"/>
       <use xlink:href="#DejaVuSans-50" transform="translate(61.078125 0)"/>
       <use xlink:href="#DejaVuSans-56" transform="translate(158.484375 0)"/>
       <use xlink:href="#DejaVuSans-45" transform="translate(210.578125 0)"/>
       <use xlink:href="#DejaVuSans-14" transform="translate(274.0625 0)"/>
       <use xlink:href="#DejaVuSans-13" transform="translate(337.6875 0)"/>
      </g>
     </g>
    </g>
    <g id="ytick_2">
     <g id="line2d_4">
      <g>
       <use xlink:href="#me63d8e968c" x="50.2" y="70.1992" style="stroke: #000000; stroke-width: 0.8"/>
      </g>
     </g>
     <g id="text_4">
      <!-- Rps21 -->
      <g transform="translate(11.96875 73.998028) scale(0.1 -0.1)">
       <defs>
        <path id="DejaVuSans-35" d="M 2841 2188 
Q 3044 2119 3236 1894 
Q 3428 1669 3622 1275 
L 4263 0 
L 3584 0 
L 2988 1197 
Q 2756 1666 2539 1819 
Q 2322 1972 1947 1972 
L 1259 1972 
L 1259 0 
L 628 0 
L 628 4666 
L 2053 4666 
Q 2853 4666 3247 4331 
Q 3641 3997 3641 3322 
Q 3641 2881 3436 2590 
Q 3231 2300 2841 2188 
z
M 1259 4147 
L 1259 2491 
L 2053 2491 
Q 2509 2491 2742 2702 
Q 2975 2913 2975 3322 
Q 2975 3731 2742 3939 
Q 2509 4147 2053 4147 
L 1259 4147 
z
" transform="scale(0.015625)"/>
        <path id="DejaVuSans-53" d="M 1159 525 
L 1159 -1331 
L 581 -1331 
L 581 3500 
L 1159 3500 
L 1159 2969 
Q 1341 3281 1617 3432 
Q 1894 3584 2278 3584 
Q 2916 3584 3314 3078 
Q 3713 2572 3713 1747 
Q 3713 922 3314 415 
Q 2916 -91 2278 -91 
Q 1894 -91 1617 61 
Q 1341 213 1159 525 
z
M 3116 1747 
Q 3116 2381 2855 2742 
Q 2594 3103 2138 3103 
Q 1681 3103 1420 2742 
Q 1159 2381 1159 1747 
Q 1159 1113 1420 752 
Q 1681 391 2138 391 
Q 2594 391 2855 752 
Q 3116 1113 3116 1747 
z
" transform="scale(0.015625)"/>
       </defs>
       <use xlink:href="#DejaVuSans-35"/>
       <use xlink:href="#DejaVuSans-53" transform="translate(69.484375 0)"/>
       <use xlink:href="#DejaVuSans-56" transform="translate(132.96875 0)"/>
       <use xlink:href="#DejaVuSans-15" transform="translate(185.0625 0)"/>
       <use xlink:href="#DejaVuSans-14" transform="translate(248.6875 0)"/>
      </g>
     </g>
    </g>
    <g id="ytick_3">
     <g id="line2d_5">
      <g>
       <use xlink:href="#me63d8e968c" x="50.2" y="96.1192" style="stroke: #000000; stroke-width: 0.8"/>
      </g>
     </g>
     <g id="text_5">
      <!-- Rpl37a -->
      <g transform="translate(8.271875 99.918419) scale(0.1 -0.1)">
       <defs>
        <path id="DejaVuSans-16" d="M 2597 2516 
Q 3050 2419 3304 2112 
Q 3559 1806 3559 1356 
Q 3559 666 3084 287 
Q 2609 -91 1734 -91 
Q 1441 -91 1130 -33 
Q 819 25 488 141 
L 488 750 
Q 750 597 1062 519 
Q 1375 441 1716 441 
Q 2309 441 2620 675 
Q 2931 909 2931 1356 
Q 2931 1769 2642 2001 
Q 2353 2234 1838 2234 
L 1294 2234 
L 1294 2753 
L 1863 2753 
Q 2328 2753 2575 2939 
Q 2822 3125 2822 3475 
Q 2822 3834 2567 4026 
Q 2313 4219 1838 4219 
Q 1578 4219 1281 4162 
Q 984 4106 628 3988 
L 628 4550 
Q 988 4650 1302 4700 
Q 1616 4750 1894 4750 
Q 2613 4750 3031 4423 
Q 3450 4097 3450 3541 
Q 3450 3153 3228 2886 
Q 3006 2619 2597 2516 
z
" transform="scale(0.015625)"/>
        <path id="DejaVuSans-1a" d="M 525 4666 
L 3525 4666 
L 3525 4397 
L 1831 0 
L 1172 0 
L 2766 4134 
L 525 4134 
L 525 4666 
z
" transform="scale(0.015625)"/>
        <path id="DejaVuSans-44" d="M 2194 1759 
Q 1497 1759 1228 1600 
Q 959 1441 959 1056 
Q 959 750 1161 570 
Q 1363 391 1709 391 
Q 2188 391 2477 730 
Q 2766 1069 2766 1631 
L 2766 1759 
L 2194 1759 
z
M 3341 1997 
L 3341 0 
L 2766 0 
L 2766 531 
Q 2569 213 2275 61 
Q 1981 -91 1556 -91 
Q 1019 -91 701 211 
Q 384 513 384 1019 
Q 384 1609 779 1909 
Q 1175 2209 1959 2209 
L 2766 2209 
L 2766 2266 
Q 2766 2663 2505 2880 
Q 2244 3097 1772 3097 
Q 1472 3097 1187 3025 
Q 903 2953 641 2809 
L 641 3341 
Q 956 3463 1253 3523 
Q 1550 3584 1831 3584 
Q 2591 3584 2966 3190 
Q 3341 2797 3341 1997 
z
" transform="scale(0.015625)"/>
       </defs>
       <use xlink:href="#DejaVuSans-35"/>
       <use xlink:href="#DejaVuSans-53" transform="translate(69.484375 0)"/>
       <use xlink:href="#DejaVuSans-4f" transform="translate(132.96875 0)"/>
       <use xlink:href="#DejaVuSans-16" transform="translate(160.75 0)"/>
       <use xlink:href="#DejaVuSans-1a" transform="translate(224.375 0)"/>
       <use xlink:href="#DejaVuSans-44" transform="translate(288 0)"/>
      </g>
     </g>
    </g>
    <g id="ytick_4">
     <g id="line2d_6">
      <g>
       <use xlink:href="#me63d8e968c" x="50.2" y="122.0392" style="stroke: #000000; stroke-width: 0.8"/>
      </g>
     </g>
     <g id="text_6">
      <!-- Cd52 -->
      <g transform="translate(17.14375 125.838419) scale(0.1 -0.1)">
       <defs>
        <path id="DejaVuSans-47" d="M 2906 2969 
L 2906 4863 
L 3481 4863 
L 3481 0 
L 2906 0 
L 2906 525 
Q 2725 213 2448 61 
Q 2172 -91 1784 -91 
Q 1150 -91 751 415 
Q 353 922 353 1747 
Q 353 2572 751 3078 
Q 1150 3584 1784 3584 
Q 2172 3584 2448 3432 
Q 2725 3281 2906 2969 
z
M 947 1747 
Q 947 1113 1208 752 
Q 1469 391 1925 391 
Q 2381 391 2643 752 
Q 2906 1113 2906 1747 
Q 2906 2381 2643 2742 
Q 2381 3103 1925 3103 
Q 1469 3103 1208 2742 
Q 947 2381 947 1747 
z
" transform="scale(0.015625)"/>
        <path id="DejaVuSans-18" d="M 691 4666 
L 3169 4666 
L 3169 4134 
L 1269 4134 
L 1269 2991 
Q 1406 3038 1543 3061 
Q 1681 3084 1819 3084 
Q 2600 3084 3056 2656 
Q 3513 2228 3513 1497 
Q 3513 744 3044 326 
Q 2575 -91 1722 -91 
Q 1428 -91 1123 -41 
Q 819 9 494 109 
L 494 744 
Q 775 591 1075 516 
Q 1375 441 1709 441 
Q 2250 441 2565 725 
Q 2881 1009 2881 1497 
Q 2881 1984 2565 2268 
Q 2250 2553 1709 2553 
Q 1456 2553 1204 2497 
Q 953 2441 691 2322 
L 691 4666 
z
" transform="scale(0.015625)"/>
       </defs>
       <use xlink:href="#DejaVuSans-26"/>
       <use xlink:href="#DejaVuSans-47" transform="translate(69.828125 0)"/>
       <use xlink:href="#DejaVuSans-18" transform="translate(133.3125 0)"/>
       <use xlink:href="#DejaVuSans-15" transform="translate(196.9375 0)"/>
      </g>
     </g>
    </g>
    <g id="ytick_5">
     <g id="line2d_7">
      <g>
       <use xlink:href="#me63d8e968c" x="50.2" y="147.9592" style="stroke: #000000; stroke-width: 0.8"/>
      </g>
     </g>
     <g id="text_7">
      <!-- Rps27 -->
      <g transform="translate(11.96875 151.758028) scale(0.1 -0.1)">
       <use xlink:href="#DejaVuSans-35"/>
       <use xlink:href="#DejaVuSans-53" transform="translate(69.484375 0)"/>
       <use xlink:href="#DejaVuSans-56" transform="translate(132.96875 0)"/>
       <use xlink:href="#DejaVuSans-15" transform="translate(185.0625 0)"/>
       <use xlink:href="#DejaVuSans-1a" transform="translate(248.6875 0)"/>
      </g>
     </g>
    </g>
    <g id="ytick_6">
     <g id="line2d_8">
      <g>
       <use xlink:href="#me63d8e968c" x="50.2" y="173.8792" style="stroke: #000000; stroke-width: 0.8"/>
      </g>
     </g>
     <g id="text_8">
      <!-- Rpl41 -->
      <g transform="translate(14.4 177.678419) scale(0.1 -0.1)">
       <defs>
        <path id="DejaVuSans-17" d="M 2419 4116 
L 825 1625 
L 2419 1625 
L 2419 4116 
z
M 2253 4666 
L 3047 4666 
L 3047 1625 
L 3713 1625 
L 3713 1100 
L 3047 1100 
L 3047 0 
L 2419 0 
L 2419 1100 
L 313 1100 
L 313 1709 
L 2253 4666 
z
" transform="scale(0.015625)"/>
       </defs>
       <use xlink:href="#DejaVuSans-35"/>
       <use xlink:href="#DejaVuSans-53" transform="translate(69.484375 0)"/>
       <use xlink:href="#DejaVuSans-4f" transform="translate(132.96875 0)"/>
       <use xlink:href="#DejaVuSans-17" transform="translate(160.75 0)"/>
       <use xlink:href="#DejaVuSans-14" transform="translate(224.375 0)"/>
      </g>
     </g>
    </g>
    <g id="ytick_7">
     <g id="line2d_9">
      <g>
       <use xlink:href="#me63d8e968c" x="50.2" y="199.7992" style="stroke: #000000; stroke-width: 0.8"/>
      </g>
     </g>
     <g id="text_9">
      <!-- Rpl37 -->
      <g transform="translate(14.4 203.598419) scale(0.1 -0.1)">
       <use xlink:href="#DejaVuSans-35"/>
       <use xlink:href="#DejaVuSans-53" transform="translate(69.484375 0)"/>
       <use xlink:href="#DejaVuSans-4f" transform="translate(132.96875 0)"/>
       <use xlink:href="#DejaVuSans-16" transform="translate(160.75 0)"/>
       <use xlink:href="#DejaVuSans-1a" transform="translate(224.375 0)"/>
      </g>
     </g>
    </g>
    <g id="ytick_8">
     <g id="line2d_10">
      <g>
       <use xlink:href="#me63d8e968c" x="50.2" y="225.7192" style="stroke: #000000; stroke-width: 0.8"/>
      </g>
     </g>
     <g id="text_10">
      <!-- Hspa8 -->
      <g transform="translate(11.63125 229.518028) scale(0.1 -0.1)">
       <defs>
        <path id="DejaVuSans-2b" d="M 628 4666 
L 1259 4666 
L 1259 2753 
L 3553 2753 
L 3553 4666 
L 4184 4666 
L 4184 0 
L 3553 0 
L 3553 2222 
L 1259 2222 
L 1259 0 
L 628 0 
L 628 4666 
z
" transform="scale(0.015625)"/>
        <path id="DejaVuSans-1b" d="M 2034 2216 
Q 1584 2216 1326 1975 
Q 1069 1734 1069 1313 
Q 1069 891 1326 650 
Q 1584 409 2034 409 
Q 2484 409 2743 651 
Q 3003 894 3003 1313 
Q 3003 1734 2745 1975 
Q 2488 2216 2034 2216 
z
M 1403 2484 
Q 997 2584 770 2862 
Q 544 3141 544 3541 
Q 544 4100 942 4425 
Q 1341 4750 2034 4750 
Q 2731 4750 3128 4425 
Q 3525 4100 3525 3541 
Q 3525 3141 3298 2862 
Q 3072 2584 2669 2484 
Q 3125 2378 3379 2068 
Q 3634 1759 3634 1313 
Q 3634 634 3220 271 
Q 2806 -91 2034 -91 
Q 1263 -91 848 271 
Q 434 634 434 1313 
Q 434 1759 690 2068 
Q 947 2378 1403 2484 
z
M 1172 3481 
Q 1172 3119 1398 2916 
Q 1625 2713 2034 2713 
Q 2441 2713 2670 2916 
Q 2900 3119 2900 3481 
Q 2900 3844 2670 4047 
Q 2441 4250 2034 4250 
Q 1625 4250 1398 4047 
Q 1172 3844 1172 3481 
z
" transform="scale(0.015625)"/>
       </defs>
       <use xlink:href="#DejaVuSans-2b"/>
       <use xlink:href="#DejaVuSans-56" transform="translate(75.203125 0)"/>
       <use xlink:href="#DejaVuSans-53" transform="translate(127.296875 0)"/>
       <use xlink:href="#DejaVuSans-44" transform="translate(190.78125 0)"/>
       <use xlink:href="#DejaVuSans-1b" transform="translate(252.0625 0)"/>
      </g>
     </g>
    </g>
    <g id="ytick_9">
     <g id="line2d_11">
      <g>
       <use xlink:href="#me63d8e968c" x="50.2" y="251.6392" style="stroke: #000000; stroke-width: 0.8"/>
      </g>
     </g>
     <g id="text_11">
      <!-- Rpl5 * -->
      <g transform="translate(12.584375 255.438419) scale(0.1 -0.1)">
       <defs>
        <path id="DejaVuSans-3" transform="scale(0.015625)"/>
        <path id="DejaVuSans-d" d="M 3009 3897 
L 1888 3291 
L 3009 2681 
L 2828 2375 
L 1778 3009 
L 1778 1831 
L 1422 1831 
L 1422 3009 
L 372 2375 
L 191 2681 
L 1313 3291 
L 191 3897 
L 372 4206 
L 1422 3572 
L 1422 4750 
L 1778 4750 
L 1778 3572 
L 2828 4206 
L 3009 3897 
z
" transform="scale(0.015625)"/>
       </defs>
       <use xlink:href="#DejaVuSans-35"/>
       <use xlink:href="#DejaVuSans-53" transform="translate(69.484375 0)"/>
       <use xlink:href="#DejaVuSans-4f" transform="translate(132.96875 0)"/>
       <use xlink:href="#DejaVuSans-18" transform="translate(160.75 0)"/>
       <use xlink:href="#DejaVuSans-3" transform="translate(224.375 0)"/>
       <use xlink:href="#DejaVuSans-d" transform="translate(256.15625 0)"/>
      </g>
     </g>
    </g>
    <g id="ytick_10">
     <g id="line2d_12">
      <g>
       <use xlink:href="#me63d8e968c" x="50.2" y="277.5592" style="stroke: #000000; stroke-width: 0.8"/>
      </g>
     </g>
     <g id="text_12">
      <!-- Dnaja1 -->
      <g transform="translate(7.765625 281.358419) scale(0.1 -0.1)">
       <defs>
        <path id="DejaVuSans-27" d="M 1259 4147 
L 1259 519 
L 2022 519 
Q 2988 519 3436 956 
Q 3884 1394 3884 2338 
Q 3884 3275 3436 3711 
Q 2988 4147 2022 4147 
L 1259 4147 
z
M 628 4666 
L 1925 4666 
Q 3281 4666 3915 4102 
Q 4550 3538 4550 2338 
Q 4550 1131 3912 565 
Q 3275 0 1925 0 
L 628 0 
L 628 4666 
z
" transform="scale(0.015625)"/>
        <path id="DejaVuSans-51" d="M 3513 2113 
L 3513 0 
L 2938 0 
L 2938 2094 
Q 2938 2591 2744 2837 
Q 2550 3084 2163 3084 
Q 1697 3084 1428 2787 
Q 1159 2491 1159 1978 
L 1159 0 
L 581 0 
L 581 3500 
L 1159 3500 
L 1159 2956 
Q 1366 3272 1645 3428 
Q 1925 3584 2291 3584 
Q 2894 3584 3203 3211 
Q 3513 2838 3513 2113 
z
" transform="scale(0.015625)"/>
        <path id="DejaVuSans-4d" d="M 603 3500 
L 1178 3500 
L 1178 -63 
Q 1178 -731 923 -1031 
Q 669 -1331 103 -1331 
L -116 -1331 
L -116 -844 
L 38 -844 
Q 366 -844 484 -692 
Q 603 -541 603 -63 
L 603 3500 
z
M 603 4863 
L 1178 4863 
L 1178 4134 
L 603 4134 
L 603 4863 
z
" transform="scale(0.015625)"/>
       </defs>
       <use xlink:href="#DejaVuSans-27"/>
       <use xlink:href="#DejaVuSans-51" transform="translate(77 0)"/>
       <use xlink:href="#DejaVuSans-44" transform="translate(140.375 0)"/>
       <use xlink:href="#DejaVuSans-4d" transform="translate(201.65625 0)"/>
       <use xlink:href="#DejaVuSans-44" transform="translate(229.4375 0)"/>
       <use xlink:href="#DejaVuSans-14" transform="translate(290.71875 0)"/>
      </g>
     </g>
    </g>
    <g id="ytick_11">
     <g id="line2d_13">
      <g>
       <use xlink:href="#me63d8e968c" x="50.2" y="303.4792" style="stroke: #000000; stroke-width: 0.8"/>
      </g>
     </g>
     <g id="text_13">
      <!-- Mxd4 -->
      <g transform="translate(15.942187 307.278419) scale(0.1 -0.1)">
       <defs>
        <path id="DejaVuSans-30" d="M 628 4666 
L 1569 4666 
L 2759 1491 
L 3956 4666 
L 4897 4666 
L 4897 0 
L 4281 0 
L 4281 4097 
L 3078 897 
L 2444 897 
L 1241 4097 
L 1241 0 
L 628 0 
L 628 4666 
z
" transform="scale(0.015625)"/>
        <path id="DejaVuSans-5b" d="M 3513 3500 
L 2247 1797 
L 3578 0 
L 2900 0 
L 1881 1375 
L 863 0 
L 184 0 
L 1544 1831 
L 300 3500 
L 978 3500 
L 1906 2253 
L 2834 3500 
L 3513 3500 
z
" transform="scale(0.015625)"/>
       </defs>
       <use xlink:href="#DejaVuSans-30"/>
       <use xlink:href="#DejaVuSans-5b" transform="translate(86.28125 0)"/>
       <use xlink:href="#DejaVuSans-47" transform="translate(145.46875 0)"/>
       <use xlink:href="#DejaVuSans-17" transform="translate(208.953125 0)"/>
      </g>
     </g>
    </g>
    <g id="ytick_12">
     <g id="line2d_14">
      <g>
       <use xlink:href="#me63d8e968c" x="50.2" y="329.3992" style="stroke: #000000; stroke-width: 0.8"/>
      </g>
     </g>
     <g id="text_14">
      <!-- Sfpq -->
      <g transform="translate(20.634375 333.198419) scale(0.1 -0.1)">
       <defs>
        <path id="DejaVuSans-36" d="M 3425 4513 
L 3425 3897 
Q 3066 4069 2747 4153 
Q 2428 4238 2131 4238 
Q 1616 4238 1336 4038 
Q 1056 3838 1056 3469 
Q 1056 3159 1242 3001 
Q 1428 2844 1947 2747 
L 2328 2669 
Q 3034 2534 3370 2195 
Q 3706 1856 3706 1288 
Q 3706 609 3251 259 
Q 2797 -91 1919 -91 
Q 1588 -91 1214 -16 
Q 841 59 441 206 
L 441 856 
Q 825 641 1194 531 
Q 1563 422 1919 422 
Q 2459 422 2753 634 
Q 3047 847 3047 1241 
Q 3047 1584 2836 1778 
Q 2625 1972 2144 2069 
L 1759 2144 
Q 1053 2284 737 2584 
Q 422 2884 422 3419 
Q 422 4038 858 4394 
Q 1294 4750 2059 4750 
Q 2388 4750 2728 4690 
Q 3069 4631 3425 4513 
z
" transform="scale(0.015625)"/>
        <path id="DejaVuSans-49" d="M 2375 4863 
L 2375 4384 
L 1825 4384 
Q 1516 4384 1395 4259 
Q 1275 4134 1275 3809 
L 1275 3500 
L 2222 3500 
L 2222 3053 
L 1275 3053 
L 1275 0 
L 697 0 
L 697 3053 
L 147 3053 
L 147 3500 
L 697 3500 
L 697 3744 
Q 697 4328 969 4595 
Q 1241 4863 1831 4863 
L 2375 4863 
z
" transform="scale(0.015625)"/>
        <path id="DejaVuSans-54" d="M 947 1747 
Q 947 1113 1208 752 
Q 1469 391 1925 391 
Q 2381 391 2643 752 
Q 2906 1113 2906 1747 
Q 2906 2381 2643 2742 
Q 2381 3103 1925 3103 
Q 1469 3103 1208 2742 
Q 947 2381 947 1747 
z
M 2906 525 
Q 2725 213 2448 61 
Q 2172 -91 1784 -91 
Q 1150 -91 751 415 
Q 353 922 353 1747 
Q 353 2572 751 3078 
Q 1150 3584 1784 3584 
Q 2172 3584 2448 3432 
Q 2725 3281 2906 2969 
L 2906 3500 
L 3481 3500 
L 3481 -1331 
L 2906 -1331 
L 2906 525 
z
" transform="scale(0.015625)"/>
       </defs>
       <use xlink:href="#DejaVuSans-36"/>
       <use xlink:href="#DejaVuSans-49" transform="translate(63.484375 0)"/>
       <use xlink:href="#DejaVuSans-53" transform="translate(98.6875 0)"/>
       <use xlink:href="#DejaVuSans-54" transform="translate(162.171875 0)"/>
      </g>
     </g>
    </g>
    <g id="ytick_13">
     <g id="line2d_15">
      <g>
       <use xlink:href="#me63d8e968c" x="50.2" y="355.3192" style="stroke: #000000; stroke-width: 0.8"/>
      </g>
     </g>
     <g id="text_15">
      <!-- Dynll1 -->
      <g transform="translate(11.325 359.118419) scale(0.1 -0.1)">
       <defs>
        <path id="DejaVuSans-5c" d="M 2059 -325 
Q 1816 -950 1584 -1140 
Q 1353 -1331 966 -1331 
L 506 -1331 
L 506 -850 
L 844 -850 
Q 1081 -850 1212 -737 
Q 1344 -625 1503 -206 
L 1606 56 
L 191 3500 
L 800 3500 
L 1894 763 
L 2988 3500 
L 3597 3500 
L 2059 -325 
z
" transform="scale(0.015625)"/>
       </defs>
       <use xlink:href="#DejaVuSans-27"/>
       <use xlink:href="#DejaVuSans-5c" transform="translate(77 0)"/>
       <use xlink:href="#DejaVuSans-51" transform="translate(136.1875 0)"/>
       <use xlink:href="#DejaVuSans-4f" transform="translate(199.5625 0)"/>
       <use xlink:href="#DejaVuSans-4f" transform="translate(227.34375 0)"/>
       <use xlink:href="#DejaVuSans-14" transform="translate(255.125 0)"/>
      </g>
     </g>
    </g>
    <g id="ytick_14">
     <g id="line2d_16">
      <g>
       <use xlink:href="#me63d8e968c" x="50.2" y="381.2392" style="stroke: #000000; stroke-width: 0.8"/>
      </g>
     </g>
     <g id="text_16">
      <!-- Gimap7 -->
      <g transform="translate(4.09375 385.038419) scale(0.1 -0.1)">
       <defs>
        <path id="DejaVuSans-2a" d="M 3809 666 
L 3809 1919 
L 2778 1919 
L 2778 2438 
L 4434 2438 
L 4434 434 
Q 4069 175 3628 42 
Q 3188 -91 2688 -91 
Q 1594 -91 976 548 
Q 359 1188 359 2328 
Q 359 3472 976 4111 
Q 1594 4750 2688 4750 
Q 3144 4750 3555 4637 
Q 3966 4525 4313 4306 
L 4313 3634 
Q 3963 3931 3569 4081 
Q 3175 4231 2741 4231 
Q 1884 4231 1454 3753 
Q 1025 3275 1025 2328 
Q 1025 1384 1454 906 
Q 1884 428 2741 428 
Q 3075 428 3337 486 
Q 3600 544 3809 666 
z
" transform="scale(0.015625)"/>
        <path id="DejaVuSans-4c" d="M 603 3500 
L 1178 3500 
L 1178 0 
L 603 0 
L 603 3500 
z
M 603 4863 
L 1178 4863 
L 1178 4134 
L 603 4134 
L 603 4863 
z
" transform="scale(0.015625)"/>
       </defs>
       <use xlink:href="#DejaVuSans-2a"/>
       <use xlink:href="#DejaVuSans-4c" transform="translate(77.484375 0)"/>
       <use xlink:href="#DejaVuSans-50" transform="translate(105.265625 0)"/>
       <use xlink:href="#DejaVuSans-44" transform="translate(202.671875 0)"/>
       <use xlink:href="#DejaVuSans-53" transform="translate(263.953125 0)"/>
       <use xlink:href="#DejaVuSans-1a" transform="translate(327.4375 0)"/>
      </g>
     </g>
    </g>
   </g>
   <g id="patch_3">
    <path d="M 50.2 394.1992 
L 50.2 31.3192 
" style="fill: none; stroke: #000000; stroke-width: 0.8; stroke-linejoin: miter; stroke-linecap: square"/>
   </g>
   <g id="patch_4">
    <path d="M 50.2 394.1992 
L 188.44 394.1992 
" style="fill: none; stroke: #000000; stroke-width: 0.8; stroke-linejoin: miter; stroke-linecap: square"/>
   </g>
   <g id="legend_1">
    <g id="text_17">
     <!-- Fraction detected -->
     <g transform="translate(235.581141 11.03875) scale(0.08 -0.08)">
      <defs>
       <path id="DejaVuSans-29" d="M 628 4666 
L 3309 4666 
L 3309 4134 
L 1259 4134 
L 1259 2759 
L 3109 2759 
L 3109 2228 
L 1259 2228 
L 1259 0 
L 628 0 
L 628 4666 
z
" transform="scale(0.015625)"/>
       <path id="DejaVuSans-46" d="M 3122 3366 
L 3122 2828 
Q 2878 2963 2633 3030 
Q 2388 3097 2138 3097 
Q 1578 3097 1268 2742 
Q 959 2388 959 1747 
Q 959 1106 1268 751 
Q 1578 397 2138 397 
Q 2388 397 2633 464 
Q 2878 531 3122 666 
L 3122 134 
Q 2881 22 2623 -34 
Q 2366 -91 2075 -91 
Q 1284 -91 818 406 
Q 353 903 353 1747 
Q 353 2603 823 3093 
Q 1294 3584 2113 3584 
Q 2378 3584 2631 3529 
Q 2884 3475 3122 3366 
z
" transform="scale(0.015625)"/>
       <path id="DejaVuSans-52" d="M 1959 3097 
Q 1497 3097 1228 2736 
Q 959 2375 959 1747 
Q 959 1119 1226 758 
Q 1494 397 1959 397 
Q 2419 397 2687 759 
Q 2956 1122 2956 1747 
Q 2956 2369 2687 2733 
Q 2419 3097 1959 3097 
z
M 1959 3584 
Q 2709 3584 3137 3096 
Q 3566 2609 3566 1747 
Q 3566 888 3137 398 
Q 2709 -91 1959 -91 
Q 1206 -91 779 398 
Q 353 888 353 1747 
Q 353 2609 779 3096 
Q 1206 3584 1959 3584 
z
" transform="scale(0.015625)"/>
       <path id="DejaVuSans-48" d="M 3597 1894 
L 3597 1613 
L 953 1613 
Q 991 1019 1311 708 
Q 1631 397 2203 397 
Q 2534 397 2845 478 
Q 3156 559 3463 722 
L 3463 178 
Q 3153 47 2828 -22 
Q 2503 -91 2169 -91 
Q 1331 -91 842 396 
Q 353 884 353 1716 
Q 353 2575 817 3079 
Q 1281 3584 2069 3584 
Q 2775 3584 3186 3129 
Q 3597 2675 3597 1894 
z
M 3022 2063 
Q 3016 2534 2758 2815 
Q 2500 3097 2075 3097 
Q 1594 3097 1305 2825 
Q 1016 2553 972 2059 
L 3022 2063 
z
" transform="scale(0.015625)"/>
      </defs>
      <use xlink:href="#DejaVuSans-29"/>
      <use xlink:href="#DejaVuSans-55" transform="translate(50.234375 0)"/>
      <use xlink:href="#DejaVuSans-44" transform="translate(91.34375 0)"/>
      <use xlink:href="#DejaVuSans-46" transform="translate(152.625 0)"/>
      <use xlink:href="#DejaVuSans-57" transform="translate(207.609375 0)"/>
      <use xlink:href="#DejaVuSans-4c" transform="translate(246.8125 0)"/>
      <use xlink:href="#DejaVuSans-52" transform="translate(274.59375 0)"/>
      <use xlink:href="#DejaVuSans-51" transform="translate(335.78125 0)"/>
      <use xlink:href="#DejaVuSans-3" transform="translate(399.15625 0)"/>
      <use xlink:href="#DejaVuSans-47" transform="translate(430.9375 0)"/>
      <use xlink:href="#DejaVuSans-48" transform="translate(494.421875 0)"/>
      <use xlink:href="#DejaVuSans-57" transform="translate(555.953125 0)"/>
      <use xlink:href="#DejaVuSans-48" transform="translate(595.15625 0)"/>
      <use xlink:href="#DejaVuSans-46" transform="translate(656.6875 0)"/>
      <use xlink:href="#DejaVuSans-57" transform="translate(711.671875 0)"/>
      <use xlink:href="#DejaVuSans-48" transform="translate(750.875 0)"/>
      <use xlink:href="#DejaVuSans-47" transform="translate(812.40625 0)"/>
     </g>
    </g>
    <g id="PathCollection_32">
     <defs>
      <path id="m4601258d5a" d="M 0 2.345208 
C 0.621956 2.345208 1.218523 2.098102 1.658312 1.658312 
C 2.098102 1.218523 2.345208 0.621956 2.345208 0 
C 2.345208 -0.621956 2.098102 -1.218523 1.658312 -1.658312 
C 1.218523 -2.098102 0.621956 -2.345208 0 -2.345208 
C -0.621956 -2.345208 -1.218523 -2.098102 -1.658312 -1.658312 
C -2.098102 -1.218523 -2.345208 -0.621956 -2.345208 0 
C -2.345208 0.621956 -2.098102 1.218523 -1.658312 1.658312 
C -1.218523 2.098102 -0.621956 2.345208 0 2.345208 
z
" style="stroke: #777777"/>
     </defs>
     <g>
      <use xlink:href="#m4601258d5a" x="208.652" y="19.942031" style="fill: #777777; stroke: #777777"/>
     </g>
    </g>
    <g id="text_18">
     <!-- 10% -->
     <g transform="translate(221.252 21.779531) scale(0.07 -0.07)">
      <defs>
       <path id="DejaVuSans-8" d="M 4653 2053 
Q 4381 2053 4226 1822 
Q 4072 1591 4072 1178 
Q 4072 772 4226 539 
Q 4381 306 4653 306 
Q 4919 306 5073 539 
Q 5228 772 5228 1178 
Q 5228 1588 5073 1820 
Q 4919 2053 4653 2053 
z
M 4653 2450 
Q 5147 2450 5437 2106 
Q 5728 1763 5728 1178 
Q 5728 594 5436 251 
Q 5144 -91 4653 -91 
Q 4153 -91 3862 251 
Q 3572 594 3572 1178 
Q 3572 1766 3864 2108 
Q 4156 2450 4653 2450 
z
M 1428 4353 
Q 1159 4353 1004 4120 
Q 850 3888 850 3481 
Q 850 3069 1003 2837 
Q 1156 2606 1428 2606 
Q 1700 2606 1854 2837 
Q 2009 3069 2009 3481 
Q 2009 3884 1853 4118 
Q 1697 4353 1428 4353 
z
M 4250 4750 
L 4750 4750 
L 1831 -91 
L 1331 -91 
L 4250 4750 
z
M 1428 4750 
Q 1922 4750 2215 4408 
Q 2509 4066 2509 3481 
Q 2509 2891 2217 2550 
Q 1925 2209 1428 2209 
Q 931 2209 642 2551 
Q 353 2894 353 3481 
Q 353 4063 643 4406 
Q 934 4750 1428 4750 
z
" transform="scale(0.015625)"/>
      </defs>
      <use xlink:href="#DejaVuSans-14"/>
      <use xlink:href="#DejaVuSans-13" transform="translate(63.625 0)"/>
      <use xlink:href="#DejaVuSans-8" transform="translate(127.25 0)"/>
     </g>
    </g>
    <g id="PathCollection_33">
     <defs>
      <path id="m6c2c80ac8e" d="M 0 5.244044 
C 1.390737 5.244044 2.7247 4.691499 3.708099 3.708099 
C 4.691499 2.7247 5.244044 1.390737 5.244044 0 
C 5.244044 -1.390737 4.691499 -2.7247 3.708099 -3.708099 
C 2.7247 -4.691499 1.390737 -5.244044 0 -5.244044 
C -1.390737 -5.244044 -2.7247 -4.691499 -3.708099 -3.708099 
C -4.691499 -2.7247 -5.244044 -1.390737 -5.244044 0 
C -5.244044 1.390737 -4.691499 2.7247 -3.708099 3.708099 
C -2.7247 4.691499 -1.390737 5.244044 0 5.244044 
z
" style="stroke: #777777"/>
     </defs>
     <g>
      <use xlink:href="#m6c2c80ac8e" x="257.810594" y="19.942031" style="fill: #777777; stroke: #777777"/>
     </g>
    </g>
    <g id="text_19">
     <!-- 50% -->
     <g transform="translate(270.410594 21.779531) scale(0.07 -0.07)">
      <use xlink:href="#DejaVuSans-18"/>
      <use xlink:href="#DejaVuSans-13" transform="translate(63.625 0)"/>
      <use xlink:href="#DejaVuSans-8" transform="translate(127.25 0)"/>
     </g>
    </g>
    <g id="PathCollection_34">
     <defs>
      <path id="mc65e7ffd96" d="M 0 7.416198 
C 1.966799 7.416198 3.853307 6.634781 5.244044 5.244044 
C 6.634781 3.853307 7.416198 1.966799 7.416198 0 
C 7.416198 -1.966799 6.634781 -3.853307 5.244044 -5.244044 
C 3.853307 -6.634781 1.966799 -7.416198 0 -7.416198 
C -1.966799 -7.416198 -3.853307 -6.634781 -5.244044 -5.244044 
C -6.634781 -3.853307 -7.416198 -1.966799 -7.416198 0 
C -7.416198 1.966799 -6.634781 3.853307 -5.244044 5.244044 
C -3.853307 6.634781 -1.966799 7.416198 0 7.416198 
z
" style="stroke: #777777"/>
     </defs>
     <g>
      <use xlink:href="#mc65e7ffd96" x="306.969187" y="19.942031" style="fill: #777777; stroke: #777777"/>
     </g>
    </g>
    <g id="text_20">
     <!-- 100% -->
     <g transform="translate(319.569187 21.779531) scale(0.07 -0.07)">
      <use xlink:href="#DejaVuSans-14"/>
      <use xlink:href="#DejaVuSans-13" transform="translate(63.625 0)"/>
      <use xlink:href="#DejaVuSans-13" transform="translate(127.25 0)"/>
      <use xlink:href="#DejaVuSans-8" transform="translate(190.875 0)"/>
     </g>
    </g>
   </g>
  </g>
 </g>
 <defs>
  <clipPath id="p8d02848418">
   <rect x="50.2" y="31.3192" width="138.24" height="362.88"/>
  </clipPath>
 </defs>
</svg>
